<?xml version="1.0" encoding="utf-8"?>
<!-- Generator: Adobe Illustrator 26.0.2, SVG Export Plug-In . SVG Version: 6.00 Build 0)  -->
<svg version="1.1" id="Layer_1" xmlns="http://www.w3.org/2000/svg" xmlns:xlink="http://www.w3.org/1999/xlink" x="0px" y="0px"
	 viewBox="0 0 800 600" style="enable-background:new 0 0 800 600;" xml:space="preserve">
<style type="text/css">
	.st0{display:none;}
	.st1{fill:none;}
	.st2{font-family:'Tahoma';}
	.st3{font-size:118.054px;}
</style>
<g id="Layer_1_00000066498699706939191170000002325639080341667766_">
</g>
<g id="Layer_2_00000001657400695531415180000006013754981878047417_" class="st0">
	
		<image style="display:inline;overflow:visible;opacity:0.42;enable-background:new    ;" width="850" height="478" xlink:href="16B1EC6F.jpeg"  transform="matrix(1.1082 0 0 1.2008 -56 -58)">
	</image>
</g>
<g id="Layer_4">
</g>
<g id="Layer_3">
	<path d="M62,210c55.8,24.6,83,21,117.4-0.3c71.2-44.1,103.3-93.5,239.4-93.5C562,116.2,711,252,711,252S567,70.3,418.8,70.3
		C258.1,70.3,226.1,147.1,153,201C117.1,227.5,62,210,62,210z"/>
	<path d="M422,344c119.7,0,242-61,242-61s-115.6,90-242,90c-164,0-252-135-252-135S272.8,344,422,344z"/>
	<g>
		<polygon points="363.9,238.3 407.5,238.3 385.7,171.6 		"/>
		<path d="M421.7,103.2c-66.4,0-120.3,53.9-120.3,120.3c0,66.4,53.9,120.3,120.3,120.3S542,290,542,223.5
			C542,157.1,488.1,103.2,421.7,103.2z M425.6,293.8l-12.8-39.5h-54.1l-12.8,39.5h-19l47.7-141.5h23.2l47.7,141.5H425.6z
			 M508.2,279.4v14.4h-54.9v-14.4h18V166.8h-18v-14.4h54.9v14.4h-18v112.6H508.2z"/>
	</g>
	<rect x="106.4" y="395.6" class="st1" width="618.8" height="164.1"/>
	<text transform="matrix(1 0 0 1 165.4282 485.3672)" class="st2 st3">CATCHER</text>
</g>
</svg>
